<?xml version="1.0" standalone="no"?>
<!DOCTYPE svg PUBLIC "-//W3C//DTD SVG 20010904//EN"
 "http://www.w3.org/TR/2001/REC-SVG-20010904/DTD/svg10.dtd">
<svg version="1.0" xmlns="http://www.w3.org/2000/svg"
 width="1282.000000pt" height="1282.000000pt" viewBox="0 0 1282.000000 1282.000000"
 preserveAspectRatio="xMidYMid meet">
<metadata>
Created by potrace 1.11, written by Peter Selinger 2001-2013
</metadata>
<g transform="translate(0.000000,1282.000000) scale(0.100000,-0.100000)"
fill="#000000" stroke="none">
<path d="M4716 7808 c-9 -12 -36 -71 -61 -130 -25 -59 -102 -237 -171 -395
-69 -158 -159 -364 -199 -458 -40 -93 -119 -276 -175 -405 -57 -129 -122 -280
-145 -335 -23 -55 -65 -151 -94 -214 -54 -121 -58 -140 -39 -159 17 -17 412
-17 426 1 5 6 53 111 105 232 52 121 134 310 182 420 48 110 118 272 155 360
104 246 129 300 139 289 5 -5 52 -108 104 -229 52 -121 135 -312 184 -425 49
-113 132 -302 183 -420 51 -118 97 -221 103 -227 13 -18 408 -18 425 -1 23 23
44 -29 -305 773 -36 83 -100 231 -143 330 -324 748 -422 972 -435 992 -15 22
-22 23 -120 23 -96 0 -105 -2 -119 -22z"/>
<path d="M6876 7815 c-220 -46 -405 -144 -569 -304 -145 -140 -237 -297 -289
-489 -29 -109 -37 -358 -14 -469 96 -476 476 -823 953 -872 293 -30 764 77
899 205 l34 31 0 405 c0 301 -3 407 -12 416 -9 9 -105 12 -370 12 -343 0 -358
-1 -368 -19 -13 -25 -13 -261 0 -281 7 -12 38 -16 137 -20 l128 -5 0 -130 0
-130 -45 -22 c-112 -55 -306 -78 -420 -49 -111 28 -187 73 -281 166 -70 69
-94 101 -128 170 -58 120 -75 194 -75 325 0 71 6 133 17 175 63 239 248 430
467 481 196 45 415 -25 573 -183 43 -43 86 -78 95 -78 20 0 292 270 292 289 0
18 -115 136 -185 188 -85 64 -244 139 -360 169 -125 33 -367 42 -479 19z"/>
<path d="M382 7798 c-9 -9 -12 -256 -12 -1049 0 -936 2 -1037 16 -1043 31 -12
419 -7 432 6 9 9 12 138 12 521 0 321 4 506 10 502 5 -3 37 -61 71 -128 34
-67 94 -185 134 -262 40 -77 127 -248 195 -380 69 -136 135 -252 151 -267 20
-20 40 -28 64 -28 24 0 44 8 64 28 18 17 124 213 282 522 138 272 256 499 260
505 5 5 9 -215 9 -496 0 -379 3 -508 12 -517 17 -17 429 -17 446 0 9 9 12 254
12 1039 0 921 -2 1029 -16 1043 -13 14 -47 16 -214 16 -192 0 -200 -1 -224
-22 -15 -14 -92 -164 -192 -373 -91 -192 -205 -433 -254 -535 -48 -102 -108
-229 -133 -282 -25 -54 -48 -98 -51 -98 -4 0 -17 24 -30 53 -13 28 -55 117
-93 197 -39 80 -163 341 -277 580 -122 255 -218 444 -232 458 -24 21 -32 22
-228 22 -144 0 -205 -3 -214 -12z"/>
<path d="M3026 7788 c-14 -20 -16 -135 -16 -1040 0 -911 2 -1018 16 -1032 13
-14 48 -16 223 -16 148 0 210 3 219 12 9 9 12 254 12 1039 0 921 -2 1029 -16
1043 -13 14 -47 16 -219 16 -199 0 -204 0 -219 -22z"/>
<path d="M8336 7794 c-14 -14 -16 -122 -16 -1043 0 -785 3 -1030 12 -1039 9
-9 175 -12 685 -12 654 0 673 1 683 19 6 11 10 91 10 189 0 151 -2 171 -18
185 -17 15 -63 17 -460 17 l-442 0 2 213 3 212 295 3 c263 2 296 4 308 19 8
12 12 66 12 185 0 155 -2 170 -20 188 -19 19 -33 20 -310 20 l-290 0 0 225 0
225 443 0 c331 0 446 3 455 12 8 8 12 66 12 193 0 127 -4 185 -12 193 -9 9
-173 12 -674 12 -589 0 -664 -2 -678 -16z"/>
<path d="M10366 7116 c-47 -28 -33 -42 24 -25 27 8 40 17 38 27 -5 24 -20 24
-62 -2z"/>
<path d="M10592 7055 c-38 -17 -63 -65 -53 -104 9 -32 58 -66 108 -76 21 -4
44 -11 51 -17 47 -39 -57 -73 -106 -35 -9 8 -19 4 -35 -12 l-22 -22 22 -18
c31 -26 101 -34 149 -19 29 10 44 22 57 50 16 33 17 40 3 72 -15 35 -64 66
-106 66 -10 0 -28 8 -41 19 -20 16 -21 21 -10 35 15 18 57 21 97 6 21 -8 31
-7 45 6 27 24 24 30 -21 48 -49 20 -94 20 -138 1z"/>
<path d="M11226 7062 c-10 -17 -126 -295 -126 -303 0 -5 13 -9 29 -9 21 0 32
6 36 20 6 17 15 20 75 20 59 0 71 -3 80 -20 10 -20 70 -30 70 -12 0 4 -29 75
-63 157 -59 139 -84 175 -101 147z m39 -158 c21 -51 20 -54 -20 -54 -19 0 -35
4 -35 9 0 13 29 81 35 81 3 0 12 -16 20 -36z"/>
<path d="M9962 6908 l3 -153 33 -3 32 -3 0 55 c0 54 1 56 28 56 23 0 32 -9 56
-55 24 -47 32 -55 57 -55 35 0 36 7 5 68 l-24 47 24 28 c34 39 34 108 -1 142
-22 23 -32 25 -120 25 l-96 0 3 -152z m172 76 c15 -38 -11 -64 -65 -64 -39 0
-39 0 -39 40 l0 40 49 0 c35 0 51 -4 55 -16z"/>
<path d="M10280 6905 l0 -155 100 0 100 0 0 30 0 30 -65 0 -65 0 0 29 c0 28 3
30 43 33 38 3 42 6 45 31 3 26 2 27 -42 27 -46 0 -46 0 -46 35 l0 34 63 3 c59
3 62 4 65 31 l3 27 -100 0 -101 0 0 -155z"/>
<path d="M10850 6905 l0 -155 100 0 100 0 0 30 c0 29 0 29 -67 32 -66 3 -68 4
-71 31 -3 26 -2 27 42 27 44 0 46 1 46 29 0 28 -3 30 -42 33 -40 3 -43 5 -46
35 l-3 32 68 3 c66 3 68 4 71 31 l3 27 -100 0 -101 0 0 -155z"/>
<path d="M11442 6929 c3 -129 3 -131 31 -154 36 -31 82 -39 132 -23 61 20 75
57 75 196 l0 112 -35 0 -35 0 0 -114 c0 -91 -3 -118 -16 -130 -19 -20 -44 -20
-70 -2 -16 13 -19 29 -22 130 l-4 116 -30 0 -30 0 4 -131z"/>
<path d="M9983 6534 c-10 -4 -13 -45 -13 -155 l0 -149 26 -6 c37 -10 132 4
165 23 86 51 80 232 -8 272 -30 14 -150 24 -170 15z m132 -60 c22 -9 45 -57
45 -94 0 -51 -25 -88 -65 -96 -61 -11 -65 -5 -65 94 0 49 3 92 7 95 8 9 56 9
78 1z"/>
<path d="M10313 6534 c-10 -4 -13 -45 -13 -155 0 -173 -8 -162 120 -157 74 3
75 4 78 31 l3 27 -65 0 -66 0 0 35 c0 35 0 35 45 35 41 0 45 2 45 24 0 22 -5
25 -42 28 -42 3 -43 4 -46 41 l-3 37 66 0 66 0 -3 28 c-3 27 -3 27 -88 29 -47
1 -91 -1 -97 -3z"/>
<path d="M10596 6519 c-59 -47 -52 -115 15 -149 21 -11 47 -20 57 -20 11 0 30
-8 43 -19 20 -16 21 -21 10 -35 -16 -19 -69 -21 -107 -4 -23 11 -28 10 -40 -7
-8 -10 -14 -22 -14 -27 0 -17 62 -38 114 -38 47 0 61 4 87 28 24 22 31 36 31
65 0 51 -23 74 -95 95 -65 19 -93 45 -67 62 20 13 77 13 101 -1 16 -8 25 -7
40 7 27 24 24 33 -16 50 -52 21 -127 18 -159 -7z"/>
<path d="M10984 6527 c-2 -7 -3 -78 -2 -157 l3 -145 25 0 c23 0 25 4 30 62 3
34 8 64 12 68 4 4 23 -25 42 -64 20 -39 40 -71 44 -71 4 0 25 33 47 73 l40 72
3 -65 c3 -74 10 -85 46 -76 l26 6 0 144 c0 113 -3 146 -15 156 -29 24 -50 6
-99 -89 l-49 -95 -45 90 c-24 49 -50 92 -56 96 -18 12 -46 9 -52 -5z"/>
<path d="M11377 6533 c-4 -3 -7 -73 -7 -155 0 -128 2 -149 16 -155 9 -3 24 -2
33 4 13 8 16 34 19 148 2 93 -1 142 -9 151 -12 15 -41 19 -52 7z"/>
<path d="M11620 6536 c0 -2 -29 -72 -64 -155 l-64 -151 26 -7 c20 -5 29 -1 40
15 12 19 24 22 81 22 55 0 70 -4 84 -21 20 -23 64 -22 59 1 -1 8 -30 79 -64
158 -47 111 -65 142 -79 142 -11 0 -19 -2 -19 -4z m44 -166 c9 -22 16 -43 16
-45 0 -3 -18 -5 -41 -5 -35 0 -40 3 -34 18 4 9 12 29 17 45 14 37 23 34 42
-13z"/>
<path d="M11900 6517 c-50 -33 -74 -81 -74 -145 1 -60 20 -93 74 -129 38 -26
128 -31 170 -10 23 11 25 18 25 77 0 64 0 65 -29 68 -45 5 -76 -6 -76 -28 0
-13 7 -20 20 -20 31 0 27 -46 -4 -54 -33 -8 -69 7 -96 41 -42 53 -9 151 57
167 16 5 38 -1 64 -16 38 -21 39 -21 54 -2 19 25 15 34 -25 56 -49 25 -119 24
-160 -5z"/>
<path d="M12185 6527 c-3 -7 -4 -78 -3 -157 l3 -145 95 0 95 0 3 27 c3 27 3
27 -65 30 l-68 3 0 30 c0 28 3 30 45 35 37 4 46 9 48 28 3 19 -1 22 -35 22
-51 0 -65 11 -61 46 3 28 4 29 71 32 68 3 68 3 65 30 -3 27 -3 27 -96 30 -70
2 -94 0 -97 -11z"/>
<path d="M11351 5988 c-5 -13 -34 -83 -65 -157 -31 -74 -56 -135 -56 -137 0
-2 13 -4 30 -4 19 0 33 7 40 20 9 17 21 20 75 20 54 0 67 -3 77 -20 14 -22 69
-28 67 -7 0 6 -29 77 -63 157 -64 149 -86 177 -105 128z m44 -144 c23 -55 20
-64 -20 -64 -19 0 -35 4 -35 10 0 12 31 90 36 90 2 0 11 -16 19 -36z"/>
<path d="M12007 5996 c-49 -18 -64 -32 -88 -77 -64 -127 48 -270 181 -230 21
6 49 20 62 31 l23 19 -22 22 -21 22 -28 -22 c-68 -53 -144 -7 -144 89 0 33 6
48 29 71 35 34 64 36 110 8 30 -18 36 -19 49 -5 46 46 -70 102 -151 72z"/>
<path d="M9970 5845 l0 -155 78 0 c122 0 175 47 175 156 0 106 -57 154 -180
154 l-73 0 0 -155z m161 76 c20 -16 24 -29 24 -74 0 -73 -22 -99 -79 -95 l-41
3 -3 79 c-2 44 -1 85 2 93 8 20 70 16 97 -6z"/>
<path d="M10300 5845 l0 -155 101 0 100 0 -3 28 c-3 26 -6 27 -65 30 -62 3
-63 3 -63 32 0 27 3 29 43 32 37 3 42 6 42 28 0 22 -5 25 -42 28 -42 3 -43 4
-43 38 l0 34 65 0 65 0 0 30 0 30 -100 0 -100 0 0 -155z"/>
<path d="M10680 5845 l0 -155 30 0 30 0 0 60 0 60 51 0 c49 0 50 1 47 28 -3
25 -7 27 -51 30 -48 3 -48 4 -45 35 3 32 3 32 68 37 61 5 65 6 65 30 0 25 -1
25 -97 28 l-98 3 0 -156z"/>
<path d="M10940 5845 l0 -155 30 0 c30 0 30 1 30 55 0 53 1 55 28 55 23 0 32
-9 57 -55 26 -50 33 -55 62 -55 l33 0 -29 58 c-28 56 -29 59 -11 70 27 16 41
74 29 117 -14 49 -50 65 -149 65 l-80 0 0 -155z m164 73 c19 -30 -4 -53 -58
-56 l-46 -3 0 41 0 41 46 -3 c31 -2 51 -9 58 -20z"/>
<path d="M11587 5994 c-4 -4 -7 -74 -7 -156 l0 -148 35 0 35 0 0 85 c0 47 3
85 8 85 4 -1 33 -39 65 -85 51 -74 62 -85 87 -85 l30 0 0 155 0 155 -35 0 -35
0 0 -85 c0 -47 -3 -85 -7 -85 -5 1 -33 38 -63 83 -42 62 -61 83 -80 85 -14 2
-29 0 -33 -4z"/>
<path d="M12247 5993 c-4 -3 -7 -73 -7 -155 l0 -149 103 3 c101 3 102 3 102
28 0 24 -3 25 -67 28 -68 3 -68 3 -68 32 0 29 2 30 45 30 43 0 45 1 45 30 0
29 -2 30 -45 30 -45 0 -45 0 -45 35 l0 35 65 0 65 0 0 30 0 30 -93 0 c-52 0
-97 -3 -100 -7z"/>
<path d="M3950 5410 c0 -127 2 -150 15 -150 13 0 15 23 15 150 0 127 -2 150
-15 150 -13 0 -15 -23 -15 -150z"/>
<path d="M4054 5547 c-2 -7 -3 -73 -2 -147 2 -96 7 -135 16 -138 9 -3 12 31
12 147 0 97 -4 151 -10 151 -6 0 -13 -6 -16 -13z"/>
<path d="M6788 5493 c-2 -55 -6 -67 -18 -64 -54 14 -70 12 -94 -12 -37 -37
-37 -107 0 -144 20 -20 31 -24 57 -18 18 3 42 6 55 7 22 0 22 1 22 149 0 88
-4 149 -10 149 -5 0 -10 -30 -12 -67z m-14 -95 c33 -47 9 -128 -37 -128 -44 0
-72 43 -63 96 11 54 71 74 100 32z"/>
<path d="M8360 5410 c0 -93 4 -150 10 -150 6 0 10 28 10 63 0 75 21 104 65 93
31 -8 45 -40 45 -107 0 -27 5 -49 10 -49 6 0 10 28 10 65 0 57 -3 69 -26 92
-25 25 -43 27 -86 8 -16 -6 -18 0 -18 64 0 41 -4 71 -10 71 -6 0 -10 -57 -10
-150z"/>
<path d="M3835 5540 c-4 -6 -3 -16 3 -22 6 -6 12 -6 17 2 4 6 3 16 -3 22 -6 6
-12 6 -17 -2z"/>
<path d="M4650 5444 c0 -132 14 -168 71 -185 50 -15 95 -3 122 33 17 23 21 47
25 143 4 101 3 115 -12 115 -14 0 -16 -15 -17 -97 -1 -118 -7 -140 -41 -166
-19 -14 -34 -17 -57 -12 -48 10 -61 46 -61 170 0 87 -3 105 -15 105 -12 0 -15
-18 -15 -106z"/>
<path d="M5195 5540 c-4 -6 -3 -16 3 -22 6 -6 12 -6 17 2 4 6 3 16 -3 22 -6 6
-12 6 -17 -2z"/>
<path d="M6075 5540 c-4 -6 -3 -16 3 -22 6 -6 12 -6 17 2 4 6 3 16 -3 22 -6 6
-12 6 -17 -2z"/>
<path d="M6405 5490 c-34 -36 -22 -39 19 -6 15 13 24 26 19 29 -6 4 -23 -7
-38 -23z"/>
<path d="M6190 5456 c0 -13 -6 -27 -12 -30 -10 -5 -10 -7 0 -12 8 -4 12 -28
12 -69 0 -81 23 -109 74 -89 26 10 18 23 -11 21 -28 -2 -28 -1 -31 66 -3 66
-3 67 23 67 14 0 25 5 25 10 0 6 -11 10 -25 10 -20 0 -25 5 -25 25 0 16 -6 25
-15 25 -9 0 -15 -9 -15 -24z"/>
<path d="M7610 5455 c0 -16 -6 -25 -15 -25 -19 0 -20 -16 0 -23 10 -4 15 -26
17 -73 2 -48 8 -70 19 -77 18 -11 69 -2 69 13 0 6 -10 8 -23 5 -35 -9 -49 15
-45 77 3 50 5 53 31 56 15 2 27 7 27 12 0 5 -12 10 -27 12 -20 2 -29 9 -31 26
-5 30 -22 28 -22 -3z"/>
<path d="M7770 5455 c0 -16 -6 -25 -15 -25 -8 0 -15 -4 -15 -10 0 -5 7 -10 15
-10 11 0 15 -17 17 -71 2 -53 7 -75 19 -82 18 -11 69 -2 69 13 0 6 -10 8 -23
5 -35 -9 -49 15 -45 77 3 50 5 53 31 56 15 2 27 7 27 12 0 5 -12 10 -27 12
-20 2 -29 9 -31 26 -5 30 -22 28 -22 -3z"/>
<path d="M9630 5455 c0 -16 -6 -25 -15 -25 -19 0 -20 -16 0 -23 10 -4 15 -26
17 -73 2 -48 8 -70 19 -77 18 -11 69 -2 69 13 0 6 -10 8 -23 5 -35 -9 -49 15
-45 77 3 50 5 53 31 56 15 2 27 7 27 12 0 5 -12 10 -27 12 -20 2 -29 9 -31 26
-5 30 -22 28 -22 -3z"/>
<path d="M9972 5458 c-7 -7 -12 -42 -12 -88 0 -46 5 -81 12 -88 17 -17 1449
-17 1466 0 12 12 17 143 6 172 -6 14 -79 16 -733 16 -552 0 -730 -3 -739 -12z"/>
<path d="M4185 5428 c-32 -19 -44 -41 -45 -81 0 -30 7 -45 30 -69 27 -26 36
-30 67 -25 36 6 61 22 52 32 -3 2 -20 -1 -37 -7 -38 -14 -60 -5 -79 33 l-12
24 75 3 76 3 -6 27 c-14 56 -75 87 -121 60z m79 -27 c26 -28 12 -41 -45 -41
-53 0 -63 14 -33 44 21 22 57 20 78 -3z"/>
<path d="M5002 5430 c-12 -5 -29 -7 -37 -4 -13 5 -15 -8 -15 -80 0 -51 4 -86
10 -86 6 0 10 27 10 60 0 67 21 100 64 100 37 0 56 -35 56 -102 0 -32 4 -58
10 -58 6 0 10 30 10 70 0 57 -4 74 -20 90 -21 21 -51 24 -88 10z"/>
<path d="M5535 5428 c-32 -19 -44 -41 -45 -81 0 -30 7 -45 30 -69 27 -26 36
-30 67 -25 36 6 61 22 52 32 -3 2 -20 -1 -37 -7 -38 -14 -60 -5 -79 33 l-12
24 75 3 76 3 -6 27 c-14 56 -75 87 -121 60z m79 -27 c26 -28 12 -41 -45 -41
-42 0 -49 3 -49 20 0 39 65 53 94 21z"/>
<path d="M5743 5433 l-33 -4 0 -85 c0 -68 3 -84 15 -84 12 0 15 14 15 70 0 60
3 71 21 80 11 7 32 9 45 6 13 -4 24 -2 24 3 0 10 -26 22 -43 19 -7 0 -27 -3
-44 -5z"/>
<path d="M5902 5424 c-16 -11 -22 -24 -20 -42 2 -21 12 -30 48 -43 31 -11 46
-23 48 -37 4 -26 -38 -40 -73 -24 -15 7 -26 8 -30 2 -7 -12 36 -30 71 -30 26
0 64 32 64 54 0 22 -29 46 -61 53 -65 13 -58 70 8 60 34 -6 46 6 17 17 -26 10
-48 7 -72 -10z"/>
<path d="M6361 5414 c-44 -36 -44 -93 -1 -136 27 -26 36 -30 67 -25 36 6 61
22 52 32 -3 2 -20 -1 -37 -7 -38 -14 -60 -5 -79 33 l-12 24 75 3 76 3 -6 27
c-9 35 -50 72 -81 72 -13 0 -37 -12 -54 -26z m93 -13 c26 -28 12 -41 -45 -41
-42 0 -49 3 -49 20 0 39 65 53 94 21z"/>
<path d="M6925 5428 c-33 -18 -45 -40 -45 -83 0 -46 25 -81 65 -91 29 -7 77 7
83 26 4 10 0 11 -14 5 -47 -20 -71 -17 -93 10 -11 15 -21 32 -21 36 0 5 32 9
70 9 68 0 70 1 70 25 0 14 -11 37 -25 50 -26 27 -58 31 -90 13z m79 -30 c21
-30 12 -38 -44 -38 -57 0 -69 11 -40 40 26 26 65 26 84 -2z"/>
<path d="M7233 5433 l-33 -4 0 -85 c0 -68 3 -84 15 -84 12 0 15 14 15 70 0 60
3 71 21 80 11 7 32 9 45 6 13 -4 24 -2 24 3 0 10 -26 22 -43 19 -7 0 -27 -3
-44 -5z"/>
<path d="M7393 5425 c-33 -23 -46 -79 -28 -121 18 -44 56 -62 96 -47 17 7 37
9 45 6 11 -4 14 10 14 79 l0 85 -27 1 c-16 0 -39 3 -53 6 -16 5 -33 1 -47 -9z
m82 -19 c26 -19 26 -103 0 -122 -44 -32 -95 1 -95 61 0 60 51 93 95 61z"/>
<path d="M7935 5417 c-24 -20 -28 -32 -28 -72 0 -40 4 -52 28 -72 21 -19 35
-23 54 -18 14 4 38 7 54 7 l27 1 0 82 0 82 -27 1 c-16 0 -40 3 -54 7 -19 5
-33 1 -54 -18z m87 -14 c23 -21 25 -95 2 -117 -39 -39 -94 -6 -94 57 0 67 49
99 92 60z"/>
<path d="M8180 5427 c-29 -15 -50 -51 -50 -88 0 -64 83 -109 136 -74 32 20 23
33 -10 15 -36 -19 -74 -5 -92 34 -15 30 -15 35 0 64 18 36 59 51 87 33 31 -18
46 -12 20 9 -27 23 -55 25 -91 7z"/>
<path d="M8625 5428 c-33 -18 -45 -40 -45 -85 0 -48 22 -78 64 -89 30 -7 78 7
84 26 4 10 0 11 -14 5 -47 -20 -71 -17 -93 10 -11 15 -21 32 -21 36 0 5 32 9
70 9 68 0 70 1 70 25 0 14 -11 37 -25 50 -26 27 -58 31 -90 13z m75 -28 c29
-29 17 -40 -40 -40 -57 0 -73 16 -40 42 29 24 55 23 80 -2z"/>
<path d="M8860 5430 c-8 -5 -23 -7 -32 -4 -16 5 -18 -3 -18 -80 0 -51 4 -86
10 -86 6 0 10 26 10 58 0 71 20 105 58 100 35 -4 52 -39 52 -105 0 -29 5 -53
10 -53 6 0 10 28 10 64 0 70 14 96 54 96 36 0 46 -19 46 -92 0 -54 3 -68 15
-68 12 0 15 13 15 60 0 101 -32 134 -106 110 -23 -8 -39 -8 -53 -1 -24 13 -51
14 -71 1z"/>
<path d="M9200 5427 c-60 -30 -64 -118 -8 -160 23 -17 34 -19 65 -11 20 5 38
15 41 22 3 11 0 12 -16 3 -31 -16 -60 -13 -82 9 -38 38 -27 50 50 50 77 0 83
6 55 59 -20 39 -61 50 -105 28z m74 -23 c31 -31 20 -44 -39 -44 -59 0 -68 10
-38 42 20 22 56 23 77 2z"/>
<path d="M9432 5430 c-12 -5 -29 -7 -37 -4 -13 5 -15 -8 -15 -80 0 -51 4 -86
10 -86 6 0 10 28 10 63 0 67 17 97 54 97 45 0 56 -17 56 -90 0 -58 3 -70 16
-70 14 0 16 11 12 75 -2 41 -8 79 -13 84 -16 16 -67 22 -93 11z"/>
<path d="M3610 5406 c14 -38 70 -146 75 -146 5 0 85 155 85 165 0 3 -6 5 -12
5 -7 0 -24 -27 -38 -60 -14 -33 -29 -60 -33 -60 -5 0 -20 27 -34 60 -15 33
-32 60 -39 60 -10 0 -11 -6 -4 -24z"/>
<path d="M3830 5345 c0 -69 3 -85 15 -85 12 0 15 16 15 85 0 69 -3 85 -15 85
-12 0 -15 -16 -15 -85z"/>
<path d="M5190 5345 c0 -69 3 -85 15 -85 12 0 15 16 15 85 0 69 -3 85 -15 85
-12 0 -15 -16 -15 -85z"/>
<path d="M5306 5353 c33 -74 50 -102 56 -92 18 28 78 163 74 166 -10 10 -25
-9 -47 -62 -12 -30 -26 -55 -31 -55 -5 0 -20 27 -35 60 -14 33 -32 60 -39 60
-9 0 -3 -23 22 -77z"/>
<path d="M6070 5345 c0 -50 4 -85 10 -85 6 0 10 35 10 85 0 50 -4 85 -10 85
-6 0 -10 -35 -10 -85z"/>
<path d="M4423 5213 c32 -2 81 -2 110 0 29 2 3 3 -58 3 -60 0 -84 -1 -52 -3z"/>
</g>
</svg>
